<?xml version="1.0" encoding="utf-8"?>
<!-- Generator: Adobe Illustrator 28.2.0, SVG Export Plug-In . SVG Version: 6.00 Build 0)  -->
<svg version="1.1" xmlns="http://www.w3.org/2000/svg" xmlns:xlink="http://www.w3.org/1999/xlink" x="0px" y="0px"
	 viewBox="0 0 200.8 165.18" enable-background="new 0 0 200.8 165.18" xml:space="preserve">
<g id="Capa_3">
</g>
<g id="Capa_2">
</g>
<g id="Capa_1">
</g>
<g id="celular">
	<path fill="#FFD07B" d="M200.8,81.36c0,19.99-5.88,40.08-19.11,55.37c-2.54,2.94-5.33,5.66-8.31,8.14
		c-30.8,25.69-93.34,30.39-118.54-5.73c-10.54-15.1-12.33-35.7-7.46-53.18c4.09-14.64,15.01-25.26,29.64-29.17
		c8.95-2.39,21.12-3.39,29.7,1.02c8.77,4.5,3.79,37.44-9.01,20.62c-9.41-12.38-21.85-0.51-26.42,9.76
		C58.76,116.37,78,148,108.21,151.28c26.35,2.86,41.01-22,44.83-44.76c4.58-27.29-2.15-56.38-25.4-73.07
		c-19.23-13.81-46.79-18.76-68.02-6.52c-9.54,5.51-15.84,15.09-19.86,25.12c-1.49,3.71-2.49,6.97-3.18,9.2
		c-1.21,3.65-4.52,6.28-8.32,6.3c-1.19,0-2.34-0.33-3.5-0.87c-7.73-3.66-9-14.18-2.8-20.06c1.03-0.98,1.99-1.91,2.79-2.74
		c0.77-0.82,1.55-1.62,2.37-2.43C42.37,25.9,74.67,0,119.74,0C172.15,0,200.8,35.05,200.8,81.36z M12.08,72.38
		C5.41,72.38,0,77.79,0,84.46s5.41,12.08,12.08,12.08s12.08-5.41,12.08-12.08S18.76,72.38,12.08,72.38z"/>
</g>
</svg>
